<svg width="60" height="60" viewBox="0 0 60 60" fill="none" xmlns="http://www.w3.org/2000/svg">
<defs>
<clipPath id="clip0">
<rect width="60" height="60" fill="white" transform="translate(60 60) rotate(-180)"/>
</clipPath>
</defs>
<g clip-path="url(#clip0)">
<path fill-rule="evenodd" clip-rule="evenodd" d="M30 3.75C23.0381 3.75 16.3613 6.51561 11.4385 11.4384C6.51562 16.3613 3.75 23.0381 3.75 30C3.75 36.9619 6.51562 43.6387 11.4385 48.5615C16.3613 53.4844 23.0381 56.25 30 56.25C36.9619 56.25 43.6387 53.4844 48.5616 48.5616C53.4844 43.6387 56.25 36.9619 56.25 30C56.25 23.0381 53.4844 16.3613 48.5616 11.4384C43.6387 6.51562 36.9619 3.75 30 3.75ZM30 -2.62268e-06C22.0435 -3.31826e-06 14.4129 3.1607 8.7868 8.78679C3.16071 14.4129 3.31826e-06 22.0435 2.62268e-06 30C1.9271e-06 37.9565 3.16071 45.5871 8.7868 51.2132C14.4129 56.8393 22.0435 60 30 60C37.9565 60 45.5871 56.8393 51.2132 51.2132C56.8393 45.5871 60 37.9565 60 30C60 22.0435 56.8393 14.4129 51.2132 8.7868C45.5871 3.1607 37.9565 -1.9271e-06 30 -2.62268e-06Z" fill="#377DFF"/>
<path fill-rule="evenodd" clip-rule="evenodd" d="M28.6731 17.4221C28.4984 17.5963 28.3599 17.8032 28.2654 18.031C28.1709 18.2588 28.1222 18.503 28.1222 18.7496C28.1222 18.9962 28.1709 19.2404 28.2654 19.4682C28.3599 19.696 28.4984 19.9029 28.6731 20.0771L38.5993 29.9996L28.6731 39.9221C28.4987 40.0964 28.3604 40.3034 28.2661 40.5311C28.1717 40.7589 28.1232 41.003 28.1232 41.2496C28.1232 41.4961 28.1717 41.7402 28.2661 41.968C28.3604 42.1958 28.4987 42.4028 28.6731 42.5771C28.8474 42.7514 29.0543 42.8897 29.2821 42.984C29.5099 43.0784 29.754 43.127 30.0006 43.127C30.2471 43.127 30.4912 43.0784 30.719 42.984C30.9468 42.8897 31.1537 42.7514 31.3281 42.5771L42.5781 31.3271C42.7527 31.1529 42.8912 30.946 42.9857 30.7182C43.0803 30.4904 43.1289 30.2462 43.1289 29.9996C43.1289 29.753 43.0803 29.5088 42.9857 29.281C42.8912 29.0532 42.7527 28.8463 42.5781 28.6721L31.3281 17.4221C31.1539 17.2475 30.947 17.1089 30.7192 17.0144C30.4914 16.9199 30.2472 16.8712 30.0006 16.8712C29.7539 16.8712 29.5097 16.9199 29.2819 17.0144C29.0541 17.1089 28.8472 17.2475 28.6731 17.4221Z" fill="#377DFF"/>
<path fill-rule="evenodd" clip-rule="evenodd" d="M16.875 30C16.875 30.4973 17.0725 30.9742 17.4242 31.3258C17.7758 31.6775 18.2527 31.875 18.75 31.875L37.5 31.875C37.9973 31.875 38.4742 31.6775 38.8258 31.3258C39.1775 30.9742 39.375 30.4973 39.375 30C39.375 29.5027 39.1775 29.0258 38.8258 28.6742C38.4742 28.3225 37.9973 28.125 37.5 28.125L18.75 28.125C18.2527 28.125 17.7758 28.3225 17.4242 28.6742C17.0725 29.0258 16.875 29.5027 16.875 30Z" fill="#377DFF"/>
</g>
</svg>
