<svg width="60" height="60" viewBox="0 0 60 60" fill="none" xmlns="http://www.w3.org/2000/svg">
<path fill-rule="evenodd" clip-rule="evenodd" d="M30 56.25C36.9619 56.25 43.6387 53.4844 48.5616 48.5616C53.4844 43.6387 56.25 36.9619 56.25 30C56.25 23.0381 53.4844 16.3613 48.5616 11.4384C43.6387 6.51562 36.9619 3.75 30 3.75C23.0381 3.75 16.3613 6.51562 11.4384 11.4384C6.51562 16.3613 3.75 23.0381 3.75 30C3.75 36.9619 6.51562 43.6387 11.4384 48.5616C16.3613 53.4844 23.0381 56.25 30 56.25ZM30 60C37.9565 60 45.5871 56.8393 51.2132 51.2132C56.8393 45.5871 60 37.9565 60 30C60 22.0435 56.8393 14.4129 51.2132 8.7868C45.5871 3.16071 37.9565 0 30 0C22.0435 0 14.4129 3.16071 8.7868 8.7868C3.16071 14.4129 0 22.0435 0 30C0 37.9565 3.16071 45.5871 8.7868 51.2132C14.4129 56.8393 22.0435 60 30 60Z" fill="#377DFF"/>
<path fill-rule="evenodd" clip-rule="evenodd" d="M31.3269 42.5779C31.5016 42.4037 31.6401 42.1968 31.7346 41.969C31.8291 41.7412 31.8778 41.497 31.8778 41.2504C31.8778 41.0038 31.8291 40.7596 31.7346 40.5318C31.6401 40.304 31.5016 40.0971 31.3269 39.9229L21.4007 30.0004L31.3269 20.0779C31.5013 19.9036 31.6396 19.6966 31.7339 19.4689C31.8283 19.2411 31.8768 18.997 31.8768 18.7504C31.8768 18.5039 31.8283 18.2598 31.7339 18.032C31.6396 17.8042 31.5013 17.5972 31.3269 17.4229C31.1526 17.2486 30.9457 17.1103 30.7179 17.016C30.4901 16.9216 30.246 16.873 29.9994 16.873C29.7529 16.873 29.5088 16.9216 29.281 17.016C29.0532 17.1103 28.8463 17.2486 28.6719 17.4229L17.4219 28.6729C17.2473 28.8471 17.1088 29.054 17.0143 29.2818C16.9197 29.5096 16.8711 29.7538 16.8711 30.0004C16.8711 30.247 16.9197 30.4912 17.0143 30.719C17.1088 30.9468 17.2473 31.1537 17.4219 31.3279L28.6719 42.5779C28.8461 42.7525 29.053 42.8911 29.2808 42.9856C29.5086 43.0801 29.7528 43.1288 29.9994 43.1288C30.2461 43.1288 30.4903 43.0801 30.7181 42.9856C30.9459 42.8911 31.1528 42.7525 31.3269 42.5779Z" fill="#377DFF"/>
<path fill-rule="evenodd" clip-rule="evenodd" d="M43.125 30C43.125 29.5027 42.9275 29.0258 42.5758 28.6742C42.2242 28.3225 41.7473 28.125 41.25 28.125H22.5C22.0027 28.125 21.5258 28.3225 21.1742 28.6742C20.8225 29.0258 20.625 29.5027 20.625 30C20.625 30.4973 20.8225 30.9742 21.1742 31.3258C21.5258 31.6775 22.0027 31.875 22.5 31.875H41.25C41.7473 31.875 42.2242 31.6775 42.5758 31.3258C42.9275 30.9742 43.125 30.4973 43.125 30Z" fill="#377DFF"/>
</svg>
