<svg width="20" height="21" viewBox="0 0 20 21" fill="none" xmlns="http://www.w3.org/2000/svg">
<path d="M10 2.82129C7.238 2.82129 5 5.05029 5 7.81129C5 12.5853 10 18.8113 10 18.8113C10 18.8113 15 12.5843 15 7.81129C15 5.05129 12.762 2.82129 10 2.82129ZM10 10.5723C9.28392 10.5723 8.59716 10.2878 8.09081 9.78148C7.58446 9.27513 7.3 8.58837 7.3 7.87229C7.3 7.1562 7.58446 6.46945 8.09081 5.9631C8.59716 5.45675 9.28392 5.17229 10 5.17229C10.7161 5.17229 11.4028 5.45675 11.9092 5.9631C12.4155 6.46945 12.7 7.1562 12.7 7.87229C12.7 8.58837 12.4155 9.27513 11.9092 9.78148C11.4028 10.2878 10.7161 10.5723 10 10.5723Z" fill="#377DFF"/>
</svg>
