<svg width="24" height="24" viewBox="0 0 24 24" fill="none" xmlns="http://www.w3.org/2000/svg">
<path d="M17.0004 7.87469C17.5512 8.02582 17.9849 8.47113 18.1321 9.03663C18.3996 10.0615 18.3996 12.2 18.3996 12.2C18.3996 12.2 18.3996 14.3384 18.1321 15.3634C17.9849 15.9289 17.5512 16.3742 17.0004 16.5254C16.0023 16.8 11.9996 16.8 11.9996 16.8C11.9996 16.8 7.99692 16.8 6.99874 16.5254C6.44797 16.3742 6.01423 15.9289 5.86703 15.3634C5.59961 14.3384 5.59961 12.2 5.59961 12.2C5.59961 12.2 5.59961 10.0615 5.86703 9.03663C6.01423 8.47113 6.44797 8.02582 6.99874 7.87469C7.99692 7.60002 11.9996 7.60002 11.9996 7.60002C11.9996 7.60002 16.0023 7.60002 17.0004 7.87469ZM10.7996 10.4V14.4L13.9996 12.4001L10.7996 10.4Z" fill-rule="evenodd" clip-rule="evenodd" fill="#ffffff"/>
</svg>
