<svg width="50" height="50" viewBox="0 0 50 50" fill="none" xmlns="http://www.w3.org/2000/svg">
<path d="M18.7507 12.5H10.4173V20.8333H14.584V16.6666H18.7507V12.5ZM39.584 20.8333H35.4173V25H31.2507V29.1666H39.584V20.8333ZM43.7506 33.3333H6.25065V8.33329H43.7506V33.3333ZM43.7506 4.16663H6.25065C3.93815 4.16663 2.08398 6.02079 2.08398 8.33329V33.3333C2.08398 34.4384 2.52297 35.4982 3.30437 36.2796C4.08577 37.061 5.14558 37.5 6.25065 37.5H20.834V41.6666H16.6673V45.8333H33.334V41.6666H29.1673V37.5H43.7506C44.8557 37.5 45.9155 37.061 46.6969 36.2796C47.4783 35.4982 47.9173 34.4384 47.9173 33.3333V8.33329C47.9173 7.22822 47.4783 6.16842 46.6969 5.38701C45.9155 4.60561 44.8557 4.16663 43.7506 4.16663Z" fill="#377DFF"/>
</svg>
