<svg width="50" height="50" viewBox="0 0 50 50" fill="none" xmlns="http://www.w3.org/2000/svg">
<path d="M27.5 25C27.76 25 28.0125 25.02 28.2625 25.0575C27.2875 25.755 26.405 26.5775 25.6425 27.5H10C9.33696 27.5 8.70107 27.7634 8.23223 28.2322C7.76339 28.7011 7.5 29.337 7.5 30V33.75C7.5 37.2675 11.4475 40 18.75 40C20.1493 40.0094 21.5465 39.8931 22.925 39.6525C23.1325 40.475 23.4175 41.265 23.765 42.02C22.114 42.3499 20.4336 42.5107 18.75 42.5C10.22 42.5 5 38.885 5 33.75V30C5 28.6739 5.52678 27.4021 6.46447 26.4645C7.40215 25.5268 8.67392 25 10 25H27.5Z" fill="#377DFF"/>
<path d="M42.5 16.25C42.5 17.9076 41.8415 19.4973 40.6694 20.6694C39.4973 21.8415 37.9076 22.5 36.25 22.5C34.5924 22.5 33.0027 21.8415 31.8306 20.6694C30.6585 19.4973 30 17.9076 30 16.25C30 14.5924 30.6585 13.0027 31.8306 11.8306C33.0027 10.6585 34.5924 10 36.25 10C37.9076 10 39.4973 10.6585 40.6694 11.8306C41.8415 13.0027 42.5 14.5924 42.5 16.25ZM36.25 12.5C35.2554 12.5 34.3016 12.8951 33.5983 13.5983C32.8951 14.3016 32.5 15.2554 32.5 16.25C32.5 17.2446 32.8951 18.1984 33.5983 18.9017C34.3016 19.6049 35.2554 20 36.25 20C37.2446 20 38.1984 19.6049 38.9016 18.9017C39.6049 18.1984 40 17.2446 40 16.25C40 15.2554 39.6049 14.3016 38.9016 13.5983C38.1984 12.8951 37.2446 12.5 36.25 12.5Z" fill="#377DFF"/>
<path d="M18.75 5C19.8991 5 21.0369 5.22633 22.0985 5.66605C23.1601 6.10578 24.1247 6.7503 24.9372 7.56282C25.7497 8.37533 26.3942 9.33992 26.8339 10.4015C27.2737 11.4631 27.5 12.6009 27.5 13.75C27.5 14.8991 27.2737 16.0369 26.8339 17.0985C26.3942 18.1601 25.7497 19.1247 24.9372 19.9372C24.1247 20.7497 23.1601 21.3942 22.0985 21.8339C21.0369 22.2737 19.8991 22.5 18.75 22.5C16.4294 22.5 14.2038 21.5781 12.5628 19.9372C10.9219 18.2962 10 16.0706 10 13.75C10 11.4294 10.9219 9.20376 12.5628 7.56282C14.2038 5.92187 16.4294 5 18.75 5ZM18.75 7.5C17.0924 7.5 15.5027 8.15848 14.3306 9.33058C13.1585 10.5027 12.5 12.0924 12.5 13.75C12.5 15.4076 13.1585 16.9973 14.3306 18.1694C15.5027 19.3415 17.0924 20 18.75 20C20.4076 20 21.9973 19.3415 23.1694 18.1694C24.3415 16.9973 25 15.4076 25 13.75C25 12.0924 24.3415 10.5027 23.1694 9.33058C21.9973 8.15848 20.4076 7.5 18.75 7.5Z" fill="#377DFF"/>
<path d="M26.2598 31.8001L27.1548 32.6751C27.631 33.1407 28.0094 33.6968 28.2677 34.3108C28.5261 34.9247 28.6591 35.584 28.6591 36.2501C28.6591 36.9161 28.5261 37.5755 28.2677 38.1894C28.0094 38.8033 27.631 39.3594 27.1548 39.8251L26.2598 40.7001C26.5848 41.4776 26.9898 42.2101 27.4673 42.8851L28.4548 42.5876C29.1072 42.3921 29.7926 42.332 30.4691 42.4109C31.1456 42.4897 31.7988 42.706 32.3887 43.0464C32.9786 43.3867 33.4928 43.844 33.8996 44.3902C34.3065 44.9364 34.5975 45.5599 34.7548 46.2226L35.0448 47.4326C35.8447 47.5237 36.6524 47.5237 37.4523 47.4326L37.7398 46.2226C37.897 45.5599 38.188 44.9364 38.5949 44.3902C39.0018 43.844 39.5159 43.3867 40.1058 43.0464C40.6957 42.706 41.349 42.4897 42.0254 42.4109C42.7019 42.332 43.3874 42.3921 44.0398 42.5876L45.0298 42.8851C45.5048 42.2101 45.9123 41.4776 46.2373 40.7001L45.3423 39.8251C44.866 39.3594 44.4876 38.8033 44.2293 38.1894C43.971 37.5755 43.8379 36.9161 43.8379 36.2501C43.8379 35.584 43.971 34.9247 44.2293 34.3108C44.4876 33.6968 44.866 33.1407 45.3423 32.6751L46.2373 31.8001C45.9164 31.0295 45.5114 30.2968 45.0298 29.6151L44.0398 29.9126C43.3874 30.1081 42.7019 30.1682 42.0254 30.0893C41.349 30.0104 40.6957 29.7941 40.1058 29.4538C39.5159 29.1134 39.0018 28.6561 38.5949 28.1099C38.188 27.5638 37.897 26.9402 37.7398 26.2776L37.4523 25.0676C36.6524 24.9765 35.8447 24.9765 35.0448 25.0676L34.7573 26.2776C34.6 26.9402 34.309 27.5638 33.9021 28.1099C33.4953 28.6561 32.9811 29.1134 32.3912 29.4538C31.8013 29.7941 31.1481 30.0104 30.4716 30.0893C29.7951 30.1682 29.1097 30.1081 28.4573 29.9126L27.4673 29.6151C26.9898 30.2901 26.5823 31.0226 26.2598 31.8001ZM36.2473 38.7501C35.5842 38.7501 34.9483 38.4867 34.4795 38.0178C34.0107 37.549 33.7473 36.9131 33.7473 36.2501C33.7473 35.587 34.0107 34.9512 34.4795 34.4823C34.9483 34.0135 35.5842 33.7501 36.2473 33.7501C36.9103 33.7501 37.5462 34.0135 38.015 34.4823C38.4839 34.9512 38.7473 35.587 38.7473 36.2501C38.7473 36.9131 38.4839 37.549 38.015 38.0178C37.5462 38.4867 36.9103 38.7501 36.2473 38.7501Z" fill="#377DFF"/>
</svg>
