<svg width="50" height="50" viewBox="0 0 50 50" fill="none" xmlns="http://www.w3.org/2000/svg">
<path d="M34.0837 29.1666C34.2503 27.7916 34.3753 26.4166 34.3753 25C34.3753 23.5833 34.2503 22.2083 34.0837 20.8333H41.1253C41.4587 22.1666 41.667 23.5625 41.667 25C41.667 26.4375 41.4587 27.8333 41.1253 29.1666H34.0837ZM30.3962 40.75C31.6462 38.4375 32.6045 35.9375 33.2712 33.3333H39.417C37.3986 36.8089 34.1964 39.4416 30.3962 40.75ZM29.8753 29.1666H20.1253C19.917 27.7916 19.792 26.4166 19.792 25C19.792 23.5833 19.917 22.1875 20.1253 20.8333H29.8753C30.0628 22.1875 30.2087 23.5833 30.2087 25C30.2087 26.4166 30.0628 27.7916 29.8753 29.1666ZM25.0003 41.5833C23.2712 39.0833 21.8753 36.3125 21.0212 33.3333H28.9795C28.1253 36.3125 26.7295 39.0833 25.0003 41.5833ZM16.667 16.6666H10.5837C12.5813 13.1817 15.7811 10.5447 19.5837 9.24996C18.3337 11.5625 17.3962 14.0625 16.667 16.6666ZM10.5837 33.3333H16.667C17.3962 35.9375 18.3337 38.4375 19.5837 40.75C15.7891 39.4409 12.5938 36.8077 10.5837 33.3333ZM8.87533 29.1666C8.54199 27.8333 8.33366 26.4375 8.33366 25C8.33366 23.5625 8.54199 22.1666 8.87533 20.8333H15.917C15.7503 22.2083 15.6253 23.5833 15.6253 25C15.6253 26.4166 15.7503 27.7916 15.917 29.1666H8.87533ZM25.0003 8.39579C26.7295 10.8958 28.1253 13.6875 28.9795 16.6666H21.0212C21.8753 13.6875 23.2712 10.8958 25.0003 8.39579ZM39.417 16.6666H33.2712C32.6191 14.0863 31.6536 11.5956 30.3962 9.24996C34.2295 10.5625 37.417 13.2083 39.417 16.6666ZM25.0003 4.16663C13.4795 4.16663 4.16699 13.5416 4.16699 25C4.16699 30.5253 6.36193 35.8243 10.2689 39.7314C12.2035 41.6659 14.5001 43.2005 17.0278 44.2475C19.5554 45.2944 22.2645 45.8333 25.0003 45.8333C30.5257 45.8333 35.8247 43.6384 39.7317 39.7314C43.6387 35.8243 45.8337 30.5253 45.8337 25C45.8337 22.2641 45.2948 19.555 44.2478 17.0274C43.2008 14.4998 41.6663 12.2031 39.7317 10.2686C37.7972 8.33401 35.5005 6.79944 32.9729 5.75247C30.4453 4.7055 27.7362 4.16663 25.0003 4.16663Z" fill="#377DFF"/>
</svg>
