<svg width="50" height="50" viewBox="0 0 50 50" fill="none" xmlns="http://www.w3.org/2000/svg">
<path d="M44.3407 17.2412L31.9433 15.4395L26.4013 4.20412C26.2499 3.8965 26.0009 3.64748 25.6933 3.49611C24.9218 3.11525 23.9843 3.43264 23.5986 4.20412L18.0566 15.4395L5.6591 17.2412C5.31731 17.2901 5.00481 17.4512 4.76555 17.6953C4.4763 17.9926 4.31691 18.3926 4.3224 18.8074C4.3279 19.2221 4.49782 19.6177 4.79485 19.9072L13.7646 28.6524L11.6454 41.001C11.5957 41.2883 11.6275 41.5837 11.7372 41.8538C11.8469 42.1239 12.03 42.3579 12.2659 42.5292C12.5018 42.7005 12.7809 42.8023 13.0717 42.823C13.3625 42.8438 13.6533 42.7826 13.9111 42.6465L24.9999 36.8164L36.0888 42.6465C36.3915 42.8076 36.7431 42.8613 37.08 42.8028C37.9296 42.6563 38.5009 41.8506 38.3544 41.001L36.2353 28.6524L45.205 19.9072C45.4491 19.668 45.6103 19.3555 45.6591 19.0137C45.7909 18.1592 45.1952 17.3682 44.3407 17.2412ZM32.4609 27.4219L34.2236 37.6905L24.9999 32.8467L15.7763 37.6953L17.539 27.4268L10.078 20.1514L20.3905 18.6524L24.9999 9.31154L29.6093 18.6524L39.9218 20.1514L32.4609 27.4219Z" fill="#377DFF"/>
</svg>
