<svg width="24" height="24" viewBox="0 0 24 24" fill="none" xmlns="http://www.w3.org/2000/svg">
<path d="M18.8 12.3748C18.8 12.7896 18.7559 13.2038 18.6694 13.6076C18.585 14.0018 18.46 14.3887 18.2962 14.7587C18.1362 15.1221 17.9378 15.4722 17.7059 15.7988C17.4775 16.1233 17.2143 16.4278 16.9252 16.7053C16.6355 16.9816 16.3168 17.2331 15.9783 17.4529C15.6364 17.6736 15.2705 17.8635 14.8911 18.0176C14.5045 18.1737 14.0998 18.2933 13.6888 18.374C13.267 18.4572 12.8332 18.4996 12.3997 18.4996C11.9659 18.4996 11.5322 18.4572 11.1109 18.374C10.6993 18.2933 10.2946 18.1737 9.90834 18.0176C9.52895 17.8635 9.16267 17.6736 8.82078 17.4529C8.48233 17.2331 8.16356 16.9816 7.87449 16.7053C7.5851 16.4278 7.32195 16.1233 7.09319 15.7988C6.86256 15.4722 6.66378 15.122 6.50316 14.7587C6.33938 14.3887 6.21408 14.0017 6.12938 13.6076C6.04376 13.2038 6 12.7896 6 12.3748C6 11.9597 6.04374 11.5446 6.12941 11.1418C6.2141 10.7476 6.33941 10.36 6.50318 9.99069C6.66381 9.62703 6.86258 9.27654 7.09322 8.94995C7.32198 8.62518 7.58513 8.32131 7.87451 8.04348C8.16359 7.76713 8.48235 7.51624 8.82081 7.29673C9.16269 7.07511 9.52898 6.88523 9.90836 6.7309C10.2946 6.57446 10.6993 6.45455 11.1109 6.37441C11.5322 6.29188 11.966 6.25 12.3997 6.25C12.8332 6.25 13.267 6.29188 13.6888 6.37441C14.0998 6.45458 14.5045 6.57448 14.8911 6.7309C15.2705 6.88521 15.6365 7.07511 15.9783 7.29673C16.3168 7.51624 16.6356 7.76713 16.9253 8.04348C17.2143 8.32131 17.4775 8.62518 17.7059 8.94995C17.9378 9.27654 18.1362 9.62706 18.2962 9.99069C18.46 10.36 18.585 10.7476 18.6694 11.1418C18.7559 11.5446 18.8 11.9597 18.8 12.3748ZM10.0677 7.64393C8.54353 8.33269 7.40597 9.67667 7.05126 11.2964C7.19535 11.2976 9.47297 11.3251 12.0972 10.6579C11.1512 9.04952 10.1405 7.73696 10.0677 7.64393ZM12.55 11.4633C9.7358 12.2695 7.03533 12.2115 6.93846 12.208C6.93688 12.2642 6.93408 12.3186 6.93408 12.3748C6.93408 13.7185 7.46379 14.9435 8.33446 15.8697C8.33258 15.867 9.82831 13.3276 12.7778 12.4149C12.8491 12.3922 12.9216 12.3718 12.9935 12.3521C12.8563 12.0548 12.7066 11.757 12.55 11.4633ZM16.0093 8.44932C15.047 7.63734 13.7835 7.14482 12.3997 7.14482C11.9556 7.14482 11.5246 7.19626 11.1118 7.29136C11.1937 7.39664 12.2203 8.69994 13.155 10.3424C15.2173 9.60251 15.9958 8.46845 16.0093 8.44932ZM13.366 13.2188C13.3538 13.2226 13.3417 13.226 13.3298 13.2301C10.105 14.306 9.05187 16.474 9.04047 16.4977C9.96835 17.1882 11.1322 17.6048 12.3997 17.6048C13.1566 17.6048 13.8776 17.4574 14.5336 17.1903C14.4526 16.7334 14.1351 15.1316 13.366 13.2188ZM15.4539 16.7124C16.6812 15.9199 17.5528 14.6615 17.7959 13.2038C17.6834 13.1691 16.1542 12.7059 14.3901 12.9765C15.107 14.8618 15.3983 16.3972 15.4539 16.7124ZM13.5757 11.1217C13.7026 11.3712 13.8254 11.625 13.9389 11.8802C13.9792 11.9717 14.0186 12.0614 14.057 12.1511C15.9346 11.925 17.7844 12.3054 17.8635 12.321C17.851 11.0811 17.3875 9.94312 16.6206 9.05223C16.6103 9.06625 15.7337 10.2784 13.5757 11.1217Z" fill-rule="evenodd" clip-rule="evenodd" fill="#ffffff"/>
</svg>
