<svg width="50" height="30" viewBox="0 0 50 30" fill="none" xmlns="http://www.w3.org/2000/svg">
<defs>
  <linearGradient id="linear_gradient" x1="25" y1="0" x2="25" y2="30" gradientUnits="userSpaceOnUse">
    <stop stop-color="#377DFF"/>
    <stop offset="1" stop-color="#8FBCFF"/>
  </linearGradient>
  <clipPath id="clip0">
    <rect width="50" height="30" fill="#FFFFFF"/>
  </clipPath>
</defs>
<g clip-path="url(#clip0)">
  <path d="M21.2012 27.8262H16.7292L10.5309 17.0909C10.2315 16.5746 9.56897 16.3961 9.05297 16.6957C8.53697 16.9953 8.35861 17.6583 8.65801 18.1747L14.2257 27.8262H9.7346L2.33864 15L9.7346 2.16745H23.1505L28.0366 10.6396C27.2403 11.3918 26.737 12.4564 26.737 13.6358C26.737 15.9052 28.5844 17.7539 30.8523 17.7539C33.1201 17.7539 34.9675 15.9052 34.9675 13.6358C34.9675 11.3663 33.1201 9.51764 30.8523 9.51764C30.5401 9.51764 30.2407 9.55589 29.9477 9.61963L24.7176 0.541861C24.5202 0.203995 24.1634 0 23.7748 0H9.11031C8.72171 0 8.36498 0.203995 8.17387 0.541861L0.147239 14.4581C-0.0438713 14.796 -0.0438713 15.204 0.147239 15.5419L8.17387 29.4581C8.36498 29.796 8.72809 30 9.11031 30H21.2012C21.8 30 22.2842 29.5155 22.2842 28.9163C22.2842 28.3107 21.8 27.8262 21.2012 27.8262ZM30.8586 11.6851C31.9352 11.6851 32.808 12.5584 32.808 13.6358C32.808 14.7131 31.9352 15.5865 30.8586 15.5865C29.7821 15.5865 28.9093 14.7131 28.9093 13.6358C28.9093 12.5648 29.7821 11.6851 30.8586 11.6851ZM49.8614 14.4581L41.8347 0.541861C41.6373 0.203995 41.2805 0 40.8919 0H28.801C28.2022 0 27.7181 0.484488 27.7181 1.08372C27.7181 1.68296 28.2022 2.16745 28.801 2.16745H33.273L39.4713 12.9027C39.6688 13.2533 40.0383 13.4445 40.4078 13.4445C40.5925 13.4445 40.7773 13.3999 40.9493 13.2979C41.4653 12.9983 41.6436 12.3353 41.3442 11.819L35.7765 2.16745H40.2676L47.67 14.9936L40.2676 27.8262H26.8517L21.9656 19.354C22.7619 18.6018 23.2652 17.5372 23.2652 16.3578C23.2652 14.0884 21.4178 12.2397 19.15 12.2397C16.8821 12.2397 15.0347 14.0884 15.0347 16.3578C15.0347 18.6273 16.8821 20.476 19.15 20.476C19.4621 20.476 19.7615 20.4377 20.0545 20.374L25.291 29.4518C25.4821 29.7896 25.8452 29.9936 26.2274 29.9936H40.8919C41.2805 29.9936 41.6373 29.7896 41.8284 29.4518L49.855 15.5355C50.0525 15.204 50.0525 14.7896 49.8614 14.4581ZM19.15 18.3085C18.0734 18.3085 17.2006 17.4352 17.2006 16.3578C17.2006 15.2805 18.0734 14.4071 19.15 14.4071C20.2265 14.4071 21.0993 15.2805 21.0993 16.3578C21.0993 17.4352 20.2265 18.3085 19.15 18.3085Z" fill="url(#linear_gradient)"/>
</g>
</svg>
