<svg width="21" height="20" viewBox="0 0 21 20" fill="none" xmlns="http://www.w3.org/2000/svg">
<path d="M4.48544 5.9975C5.49244 5.9975 6.30878 5.18116 6.30878 4.17416C6.30878 3.16716 5.49244 2.35083 4.48544 2.35083C3.47844 2.35083 2.66211 3.16716 2.66211 4.17416C2.66211 5.18116 3.47844 5.9975 4.48544 5.9975Z" fill="white"/>
<path d="M8.03044 7.37915V17.495H11.1713V12.4925C11.1713 11.1725 11.4196 9.89415 13.0563 9.89415C14.6704 9.89415 14.6904 11.4033 14.6904 12.5758V17.4958H17.8329V11.9483C17.8329 9.22332 17.2463 7.12915 14.0613 7.12915C12.5321 7.12915 11.5071 7.96832 11.0879 8.76248H11.0454V7.37915H8.03044ZM2.91211 7.37915H6.05794V17.495H2.91211V7.37915Z" fill="white"/>
</svg>
